PathFileType	4	(X/Y/Z)
DataRate	CameraRate	NumFrames	NumMarkers	Units	OrigDataRate	OrigDataStartFrame	OrigNumFrames	
	120.0	120.0	5	39	mm	120.0	89	142
Frame#	Time	midhip	hip_r	hip_l	knee_r	knee_l	ankle_r	ankle_l	midasis	asis_r	asis_l	psis_r	psis_l	epicondLat_r	epicondLat_l	epicondMed_r	epicondMed_l	malleolusLat_r	malleolusLat_l	malleolusMedv_r	malleolusMedv_l	heel_r	heel_l	sternalnotch	xyphoidprocess	neck	subclavicle_r	subclavicle_l	toe_r	toe_l	thighwand_r	thighwand_l	upperleg1_r	upperleg1_l	upperleg2_r	upperleg2_l	shankwand_r	shankwand_l	lowerleg1_r	lowerleg1_l
	X1	Y1	Z1	X2	Y2	Z2	X3	Y3	Z3	X4	Y4	Z4	X5	Y5	Z5	X6	Y6	Z6	X7	Y7	Z7	X8	Y8	Z8	X9	Y9	Z9	X10	Y10	Z10	X11	Y11	Z11	X12	Y12	Z12	X13	Y13	Z13	X14	Y14	Z14	X15	Y15	Z15	X16	Y16	Z16	X17	Y17	Z17	X18	Y18	Z18	X19	Y19	Z19	X20	Y20	Z20	X21	Y21	Z21	X22	Y22	Z22	X23	Y23	Z23	X24	Y24	Z24	X25	Y25	Z25	X26	Y26	Z26	X27	Y27	Z27	X28	Y28	Z28	X29	Y29	Z29	X30	Y30	Z30	X31	Y31	Z31	X32	Y32	Z32	X33	Y33	Z33	X34	Y34	Z34	X35	Y35	Z35	X36	Y36	Z36	X37	Y37	Z37	X38	Y38	Z38	X39	Y39	Z39

	89	0.74167	537.964	743.333	-263.416	529.613	745.121	-198.820	546.315	741.545	-328.011	479.288	406.497	-155.457	483.882	424.061	-352.831	511.849	66.933	-119.061	494.596	70.299	-390.858	610.414	809.567	-255.883	596.980	812.443	-151.972	623.848	806.691	-359.793	452.280	856.081	-243.856	455.207	853.999	-298.887	474.815	414.114	-101.171	482.395	428.598	-407.122	486.527	407.252	-208.007	488.178	400.029	-305.271	499.488	69.532	-83.752	484.285	73.788	-426.221	515.422	66.021	-141.727	497.837	66.512	-372.398	477.648	37.328	-143.764	437.215	41.313	-380.961	550.870	1172.479	-273.621	587.577	1093.612	-274.395	458.057	1219.099	-287.973	562.604	1172.354	-233.849	567.048	1177.423	-308.609	607.038	36.757	-84.842	595.850	38.936	-420.583	589.782	528.991	-56.125	658.031	526.703	-356.392	524.994	588.715	-97.354	597.299	597.327	-382.183	514.747	501.421	-105.996	572.299	513.289	-385.162	465.963	185.296	-21.116	490.002	205.529	-487.776	480.453	144.589	-91.568	478.377	158.368	-419.149
	90	0.75000	538.029	743.334	-263.424	529.667	745.128	-198.830	546.391	741.539	-328.018	479.341	406.504	-155.479	483.929	424.050	-352.837	511.848	66.917	-119.082	494.625	70.271	-390.846	610.498	809.546	-255.882	597.049	812.433	-151.992	623.947	806.660	-359.773	452.292	856.165	-243.898	455.246	854.008	-298.920	474.877	414.117	-101.192	482.449	428.585	-407.127	486.773	407.173	-208.025	488.205	399.947	-305.300	499.493	69.519	-83.771	484.319	73.759	-426.210	515.472	65.967	-141.744	497.852	66.487	-372.397	477.675	37.311	-143.768	437.207	41.321	-380.962	551.226	1172.383	-273.723	587.916	1093.505	-274.225	458.141	1219.103	-287.959	562.717	1172.278	-233.871	567.620	1177.301	-308.624	607.065	36.728	-84.869	595.885	38.890	-420.558	589.877	528.966	-56.154	658.143	526.611	-356.302	525.086	588.676	-97.389	597.316	597.249	-382.186	514.903	501.378	-106.020	572.350	513.224	-385.161	465.996	185.287	-21.137	490.039	205.517	-487.775	480.521	144.541	-91.618	478.450	158.330	-419.146
	91	0.75833	538.097	743.337	-263.428	529.725	745.136	-198.835	546.469	741.538	-328.020	479.384	406.508	-155.494	483.966	424.045	-352.844	511.835	66.904	-119.104	494.633	70.250	-390.837	610.574	809.540	-255.877	597.110	812.433	-152.000	624.038	806.647	-359.755	452.319	856.218	-243.935	455.293	854.013	-298.951	474.933	414.118	-101.206	482.496	428.579	-407.135	486.774	407.140	-208.006	488.260	399.949	-305.242	499.488	69.508	-83.791	484.334	73.737	-426.203	515.463	65.925	-141.757	497.834	66.481	-372.391	477.685	37.304	-143.774	437.202	41.319	-380.963	550.859	1172.310	-273.530	587.371	1093.351	-274.246	458.234	1219.093	-287.932	562.755	1172.261	-233.831	566.907	1177.121	-308.571	607.087	36.705	-84.891	595.904	38.870	-420.543	589.958	528.945	-56.178	658.190	526.603	-356.355	525.158	588.660	-97.415	597.359	597.204	-382.185	514.952	501.355	-106.027	572.385	513.240	-385.150	466.023	185.276	-21.157	490.068	205.511	-487.773	480.551	144.546	-91.658	478.479	158.327	-419.141
	92	0.76667	538.170	743.338	-263.427	529.787	745.140	-198.836	546.553	741.536	-328.018	479.420	406.510	-155.506	483.994	424.044	-352.855	511.815	66.892	-119.129	494.619	70.238	-390.833	610.642	809.545	-255.868	597.161	812.443	-151.997	624.122	806.648	-359.740	452.374	856.219	-243.963	455.348	854.012	-298.981	474.984	414.117	-101.215	482.539	428.578	-407.147	486.677	407.142	-207.970	488.420	399.969	-305.135	499.477	69.498	-83.812	484.329	73.726	-426.202	515.395	65.920	-141.774	497.820	66.477	-372.384	477.680	37.305	-143.784	437.202	41.306	-380.965	551.219	1172.343	-273.528	587.839	1093.434	-274.046	458.313	1219.090	-287.914	562.811	1172.269	-233.739	567.527	1177.212	-308.441	607.104	36.687	-84.910	595.902	38.878	-420.539	590.022	528.929	-56.197	658.201	526.638	-356.466	525.220	588.665	-97.441	597.425	597.200	-382.179	514.955	501.367	-106.026	572.463	513.301	-385.125	466.042	185.267	-21.172	490.089	205.510	-487.772	480.550	144.591	-91.668	478.474	158.343	-419.140
	93	0.77500	538.244	743.337	-263.421	529.849	745.142	-198.832	546.639	741.532	-328.011	479.454	406.510	-155.511	484.019	424.044	-352.867	511.791	66.879	-119.147	494.599	70.234	-390.830	610.705	809.555	-255.853	597.205	812.457	-151.987	624.205	806.653	-359.720	452.443	856.194	-243.984	455.410	854.006	-299.008	475.031	414.114	-101.219	482.582	428.578	-407.159	486.632	407.126	-207.933	488.592	399.988	-305.137	499.462	69.487	-83.828	484.320	73.722	-426.202	515.310	65.935	-141.797	497.809	66.471	-372.370	477.669	37.309	-143.795	437.205	41.289	-380.966	551.327	1172.403	-273.478	588.024	1093.531	-274.137	458.374	1219.098	-287.892	562.908	1172.262	-233.656	567.641	1177.356	-308.407	607.123	36.670	-84.923	595.887	38.907	-420.540	590.073	528.917	-56.208	658.225	526.661	-356.534	525.260	588.669	-97.479	597.478	597.236	-382.212	514.963	501.385	-106.029	572.573	513.391	-385.149	466.054	185.261	-21.182	490.109	205.512	-487.769	480.516	144.633	-91.640	478.429	158.369	-419.168
